# xmcd
#
# Track frame offsets: 
#        150
#        7642
#        21152
#        31242
#        48825
#        66670
#        80400
#        82480
#        89830
#        114485
#        128345
#
# Disc length: 2034 seconds
#
# Revision: 2
# Processed by: cddbd v1.5.1PL0 Copyright (c) Steve Scherf et al.
# Submitted via: ExactAudioCopy v0.90b4
#
DISCID=8607f00b
DTITLE=Motorpsycho - The Tussler
DYEAR=1994
DGENRE=CountryRock
TTITLE0=Theme From The Tussler
TTITLE1=Six Days On The Road
TTITLE2=Frances
TTITLE3=Babylon
TTITLE4=I Know You Rider
TTITLE5=Hogwash
TTITLE6=The Tussler
TTITLE7=SonnyBoy Gaybar
TTITLE8=Sunchild
TTITLE9=Waiting For The One
TTITLE10=A Memory
EXTD=
EXTT0=
EXTT1=
EXTT2=
EXTT3=
EXTT4=
EXTT5=
EXTT6=
EXTT7=
EXTT8=
EXTT9=
EXTT10=
PLAYORDER=
